<svg width="1646" height="1829" viewBox="0 0 1646 1829" fill="none" xmlns="http://www.w3.org/2000/svg">
<path d="M1338.2 1291.07C1344.22 1299.79 1346.92 1311.15 1346.24 1324.95C1345.46 1340.78 1340.22 1360.18 1330.65 1382.63C1314.54 1420.4 1286.05 1467.38 1245.97 1522.26C1177.72 1615.68 1098.44 1700.76 1097.65 1701.61L1097.33 1701.31C1098.12 1700.46 1177.39 1615.4 1245.62 1521.99C1285.68 1467.14 1314.15 1420.19 1330.25 1382.45C1339.79 1360.06 1345.03 1340.7 1345.8 1324.93C1346.65 1307.61 1342.15 1294.18 1332.42 1285.02C1218.09 1177.37 1043.72 1160.85 875.086 1144.88C792.263 1137.04 714.033 1129.63 646.981 1111.53C611.026 1101.82 581.44 1089.88 556.53 1075.03C528.729 1058.45 507.269 1038.62 490.925 1014.39C482.607 1002.06 476.964 989.685 474.153 977.6C471.515 966.262 471.288 954.821 473.482 943.601C484.087 889.243 548.806 845.752 605.904 807.377C659.066 771.648 704.979 740.789 692.95 710.497C684.358 688.861 664.831 675.774 633.254 670.498C605.106 665.791 570.394 667.602 536.825 669.351C498.824 671.338 459.526 673.385 430.777 665.714C390.307 654.907 350.107 634.493 311.29 605.033C280.238 581.464 249.998 552.091 221.405 517.722C172.729 459.214 145.357 405.789 145.087 405.257L145.478 405.058C145.753 405.596 173.101 458.975 221.753 517.455C266.642 571.408 339.366 640.858 430.89 665.289C459.573 672.945 498.835 670.896 536.803 668.914C570.393 667.159 605.128 665.35 633.324 670.059C648.535 672.603 660.629 676.785 670.297 682.844C681.176 689.664 688.72 698.653 693.356 710.332C705.518 740.958 659.467 771.903 606.148 807.741C549.12 846.067 484.485 889.51 473.909 943.679C469.356 967.014 475.041 990.063 491.29 1014.15C522.174 1059.93 571.686 1090.74 647.095 1111.1C714.113 1129.2 792.325 1136.61 875.129 1144.45C958.007 1152.3 1043.71 1160.41 1123.09 1180.04C1166 1190.65 1203 1203.57 1236.22 1219.52C1254.28 1228.2 1271.36 1237.91 1286.99 1248.37C1303.43 1259.38 1318.81 1271.61 1332.72 1284.7C1334.78 1286.63 1336.6 1288.76 1338.2 1291.07Z" fill="#A0C6FF" fill-opacity="0.17"/>
<path d="M1335.99 1286.87C1341.54 1294.91 1344.43 1305.06 1344.59 1317.17C1344.79 1331.82 1341.01 1349.67 1333.36 1370.25C1320.35 1405.25 1295.96 1448.79 1260.87 1499.68C1235.06 1537.11 1203.92 1577.89 1168.32 1620.91C1149.76 1643.33 1130.71 1665.47 1111.69 1686.71C1110.49 1688.06 1109.69 1688.95 1109.62 1689.04L1109.47 1688.93L1109.21 1688.82C1109.24 1688.75 1109.24 1688.75 1111.34 1686.4C1137.78 1656.87 1205.23 1579.53 1260.48 1499.41C1295.55 1448.56 1319.92 1405.05 1332.92 1370.08C1340.55 1349.56 1344.32 1331.77 1344.12 1317.18C1343.9 1301.25 1338.95 1288.75 1329.4 1280.03C1214.94 1175.54 1043.45 1157.74 877.596 1140.52C795.062 1131.96 717.106 1123.87 650.679 1105.19C615.07 1095.17 585.86 1082.98 561.381 1067.92C534.071 1051.11 513.149 1031.1 497.414 1006.73C471.833 967.093 473.577 929.073 502.737 890.478C528.088 856.934 570.639 827.587 608.183 801.696C658.991 766.65 702.872 736.386 690.153 706.828C675.255 671.924 633.229 666.131 598.272 664.979C578.919 664.343 558.003 665.115 537.773 665.857C499.612 667.262 460.15 668.713 431.622 660.471C392.397 649.143 353.558 628.437 316.183 598.922C286.283 575.312 257.251 546.046 229.898 511.948C205.542 481.584 187.07 452.954 175.86 434.278C169.493 423.67 164.753 415.097 161.898 409.775C161.849 409.684 157.066 400.742 157.15 400.453L157.378 400.518L157.597 400.429C157.792 400.879 183.682 453.686 230.646 512.124C273.525 565.477 343.221 634.444 431.754 660.017C460.208 668.238 499.631 666.787 537.754 665.382C557.994 664.642 578.921 663.872 598.289 664.506C622.684 665.308 640.755 668.327 655.152 673.998C668.339 679.19 678.192 686.586 684.997 696.448C687.167 699.591 689.026 702.983 690.587 706.643C703.463 736.554 659.432 766.923 608.452 802.087C570.938 827.958 528.42 857.282 503.117 890.766C474.085 929.175 472.353 967.025 497.81 1006.47C527.542 1052.51 576.157 1083.74 650.808 1104.73C717.194 1123.4 795.131 1131.49 877.645 1140.05C959.1 1148.51 1043.33 1157.25 1121.69 1176.97C1164.05 1187.63 1200.66 1200.43 1233.6 1216.1C1270.8 1233.8 1302.24 1254.6 1329.72 1279.68C1332.09 1281.85 1334.18 1284.25 1335.99 1286.87Z" fill="#A0C6FF" fill-opacity="0.17"/>
<path d="M1333.88 1282.76C1339.16 1290.41 1342.16 1299.87 1342.83 1311C1343.67 1325.12 1340.79 1342.27 1334.25 1361.97C1323.09 1395.61 1301.12 1437.41 1268.96 1486.22C1243.24 1525.24 1197.42 1589.21 1125.21 1672.31C1123.1 1674.74 1121.7 1676.34 1121.59 1676.51L1121.14 1676.3C1121.19 1676.17 1121.57 1675.72 1124.82 1671.98C1197.02 1588.9 1242.82 1524.95 1268.53 1485.94C1300.67 1437.17 1322.62 1395.41 1333.77 1361.81C1347.42 1320.68 1344.93 1291.49 1326.38 1275.07C1211.92 1173.71 1043.33 1154.66 880.284 1136.24C797.989 1126.95 720.26 1118.17 654.427 1098.91C619.144 1088.59 590.299 1076.14 566.244 1060.86C539.415 1043.81 519.027 1023.61 503.906 999.085C479.572 959.585 481.378 921.809 509.424 883.592C533.785 850.404 574.464 821.55 610.358 796.096C658.826 761.725 700.689 732.046 687.366 703.189C671.816 669.525 630.307 663.685 595.877 662.356C577.576 661.651 557.999 662.066 539.066 662.463C498.842 663.313 460.848 664.115 432.477 655.26C394.495 643.402 357.021 622.402 321.091 592.838C292.345 569.186 264.527 540.04 238.406 506.202C215.129 476.051 197.572 447.729 186.944 429.282C180.883 418.764 176.402 410.305 173.712 405.064C173.669 404.979 169.138 396.137 169.231 395.825L169.474 395.897L169.711 395.813C169.871 396.226 193.748 447.663 239.261 506.481C280.189 559.37 346.959 628.032 432.628 654.774C460.923 663.611 498.873 662.804 539.055 661.956C557.994 661.555 577.579 661.143 595.899 661.853C619.933 662.78 637.748 665.763 651.972 671.242C665.657 676.508 675.848 684.087 682.865 694.256C684.74 696.972 686.391 699.878 687.822 702.972C701.327 732.217 659.308 762.014 610.654 796.513C574.792 821.945 534.144 850.768 509.834 883.895C481.922 921.922 480.123 959.513 504.337 998.818C532.901 1045.14 580.637 1076.8 654.569 1098.42C720.361 1117.67 798.069 1126.45 880.341 1135.74C960.367 1144.78 1043.12 1154.13 1120.42 1173.92C1162.22 1184.62 1198.41 1197.31 1231.07 1212.7C1267.96 1230.08 1299.24 1250.36 1326.72 1274.69C1329.45 1277.1 1331.83 1279.8 1333.88 1282.76Z" fill="#A0C6FF" fill-opacity="0.17"/>
</svg>
